<svg xmlns="http://www.w3.org/2000/svg" viewBox="0 0 596 138.5" enable-background="new 0 0 596 138.5"><style type="text/css">.st0{display:none;} .st1{display:inline;} .st2{fill:#FFFFFF;} .st3{fill:#003766;} .st4{opacity:0.4;fill:url(#SVGID_1_);} .st5{opacity:0.4;fill:url(#SVGID_2_);} .st6{display:inline;opacity:0.2;fill:url(#SVGID_3_);} .st7{display:inline;opacity:0.2;fill:url(#SVGID_4_);} .st8{fill:#005DAB;} .st9{fill:#425967;} .st10{opacity:0.4;fill:url(#SVGID_5_);} .st11{opacity:0.4;fill:url(#SVGID_6_);} .st12{display:inline;opacity:0.2;fill:url(#SVGID_7_);} .st13{display:inline;opacity:0.2;fill:url(#SVGID_8_);}</style><g id="black_x5F_bg2" class="st0"><path class="st1" d="M-99.5-231.4h800v600h-800z"/><g class="st1"><path class="st2" d="M67.2 80.2C51 68.4 38.8 47.9 48.6 31.7c4.4-5.4 10-9.8 16.2-13.5.7-.3 1.4-.6 2.1-1h-.4C96.9.4 141.1.9 141.1.9s-77.8-9-119.4 30.7c-8.2 6.9-14.4 16-18.1 26.1v.1C.6 66.1-.6 75.1.3 84.4c2 20.9 14.3 38.3 31.4 47.8 5.7 3.7 12.7 5.5 20 4.8 17.3-1.7 30-17.1 28.3-34.4-.9-9.3-5.8-17.3-12.8-22.4zM95.5 27.3c-.3.1-31.7 13-12.2 34.3C99.7 79.3 108 86.7 103 110.1c-1.9 9.6-7.9 18.1-17.5 25.1 24.1-10.2 39.9-35.2 37.2-62.6-1.9-19.2-12.3-35.5-27.2-45.3zM193.7 56.6c-1.4-1.8-3.4-3.2-5.9-4-2.5-.9-4.8-1.3-7-1.3-1.3 0-2.6.2-4 .5s-2.7.8-3.9 1.4c-1.2.6-2.2 1.5-3 2.6-.8 1.1-1.1 2.4-1.1 3.9 0 2.4.9 4.3 2.7 5.6 1.8 1.3 4.1 2.4 6.9 3.3 2.8.9 5.8 1.8 8.9 2.7s6.2 2.2 8.9 3.9c2.8 1.7 5.1 3.9 6.9 6.7 1.8 2.8 2.7 6.6 2.7 11.3 0 4.5-.8 8.4-2.5 11.7-1.7 3.3-3.9 6.1-6.8 8.3-2.9 2.2-6.2 3.8-9.9 4.9-3.8 1.1-7.7 1.6-11.9 1.6-5.2 0-10.1-.8-14.6-2.4-4.5-1.6-8.7-4.2-12.5-7.8l12.7-13.9c1.8 2.4 4.1 4.3 6.9 5.6 2.8 1.3 5.6 2 8.6 2 1.4 0 2.9-.2 4.4-.5s2.8-.9 4-1.5c1.2-.7 2.1-1.6 2.9-2.6.7-1.1 1.1-2.3 1.1-3.8 0-2.4-.9-4.3-2.8-5.8-1.9-1.4-4.2-2.6-7-3.6s-5.9-2-9.1-3c-3.3-1-6.3-2.3-9.1-4-2.8-1.7-5.1-3.9-7-6.6-1.9-2.7-2.8-6.3-2.8-10.8 0-4.3.9-8.1 2.6-11.4 1.7-3.3 4-6 6.8-8.2 2.9-2.2 6.1-3.9 9.9-5 3.7-1.1 7.6-1.7 11.5-1.7 4.6 0 9 .6 13.2 1.9 4.3 1.3 8.1 3.5 11.5 6.5l-12.2 13.5zM249 110.7h-.2c-1.9 3-4.4 5.1-7.6 6.4-3.2 1.3-6.5 1.9-10 1.9-2.6 0-5.1-.4-7.5-1.1s-4.5-1.8-6.3-3.2c-1.8-1.4-3.3-3.2-4.3-5.4-1.1-2.1-1.6-4.6-1.6-7.4 0-3.2.6-5.9 1.8-8.1 1.2-2.2 2.8-4 4.8-5.5 2-1.4 4.3-2.6 6.9-3.4 2.6-.8 5.3-1.4 8-1.8 2.8-.4 5.5-.6 8.3-.7 2.8-.1 5.3-.1 7.7-.1 0-3-1.1-5.5-3.2-7.2-2.2-1.8-4.7-2.7-7.7-2.7-2.8 0-5.4.6-7.7 1.8-2.3 1.2-4.4 2.8-6.2 4.8l-9.1-9.3c3.2-3 6.9-5.2 11.2-6.7 4.3-1.5 8.7-2.2 13.2-2.2 5 0 9.1.6 12.4 1.9 3.2 1.3 5.8 3.1 7.8 5.5 1.9 2.4 3.3 5.4 4 8.9.8 3.5 1.1 7.6 1.1 12.3v28.2H249v-6.9zm-4.2-17.3c-1.3 0-2.9.1-4.8.2s-3.8.4-5.6 1c-1.8.5-3.3 1.3-4.6 2.4-1.3 1.1-1.9 2.5-1.9 4.4 0 2.1.9 3.6 2.6 4.6 1.7 1 3.6 1.5 5.5 1.5 1.7 0 3.3-.2 4.8-.7 1.6-.5 2.9-1.1 4.2-1.9 1.2-.8 2.2-1.9 2.9-3.2.7-1.3 1.1-2.8 1.1-4.6v-3.6h-4.2zM272.8 31.5h17.1v86.2h-17.1V31.5zM351.8 108.1c-2.7 3.5-6.2 6.2-10.4 8.1-4.2 1.9-8.5 2.8-13 2.8-4.3 0-8.3-.7-12-2.1s-7-3.3-9.8-5.9c-2.8-2.5-5-5.6-6.6-9.2-1.6-3.6-2.4-7.6-2.4-12s.8-8.4 2.4-12c1.6-3.6 3.8-6.6 6.6-9.2 2.8-2.5 6-4.5 9.8-5.9 3.8-1.4 7.8-2.1 12-2.1 4 0 7.5.7 10.8 2.1 3.2 1.4 6 3.3 8.2 5.9 2.2 2.5 4 5.6 5.2 9.2 1.2 3.6 1.8 7.6 1.8 12v5.4h-39.7c.7 3.3 2.2 5.9 4.4 7.8 2.3 1.9 5.1 2.9 8.4 2.9 2.8 0 5.2-.6 7.1-1.9 1.9-1.3 3.6-2.9 5.1-4.8l12.1 8.9zm-14.4-24.4c.1-2.9-.9-5.4-2.8-7.4-2-2.1-4.5-3.1-7.6-3.1-1.9 0-3.6.3-5 .9-1.4.6-2.7 1.4-3.7 2.3-1 1-1.8 2.1-2.4 3.3-.6 1.3-.9 2.6-1 3.9h22.5zM393.3 78.5c-2.5-3.1-5.8-4.7-9.9-4.7-1.4 0-2.8.3-4.2 1-1.4.7-2.1 1.9-2.1 3.5 0 1.4.7 2.4 2.1 3 1.4.6 3.2 1.2 5.4 1.7s4.5 1 7 1.6c2.5.6 4.8 1.5 7 2.7 2.2 1.2 4 2.9 5.4 5 1.4 2.1 2.1 4.9 2.1 8.4 0 3.6-.8 6.5-2.3 8.8-1.6 2.3-3.6 4.2-6 5.6-2.4 1.4-5.2 2.4-8.2 3-3 .6-6 .9-9 .9-3.9 0-7.8-.6-11.7-1.7-4-1.1-7.3-3.1-10-5.9L369 100c1.6 2 3.4 3.5 5.3 4.5s4.2 1.5 6.8 1.5c2 0 3.8-.3 5.4-.9 1.6-.6 2.4-1.6 2.4-3.1 0-1.4-.7-2.5-2.1-3.2-1.4-.7-3.2-1.3-5.4-1.8s-4.5-1-7-1.6c-2.5-.6-4.8-1.4-7-2.6-2.2-1.1-4-2.8-5.4-4.8-1.4-2.1-2.1-4.9-2.1-8.4 0-3.3.7-6.1 2-8.4 1.3-2.4 3.1-4.3 5.2-5.8 2.2-1.5 4.7-2.6 7.5-3.4 2.8-.7 5.7-1.1 8.6-1.1 3.6 0 7.3.5 11.1 1.6 3.7 1.1 6.9 3 9.5 5.7l-10.5 10.3zM415.9 36.9h9.6v71.8h36.9v8.9h-46.5V36.9zM465.4 91c0-4.2.7-8 2.2-11.4 1.4-3.4 3.4-6.4 5.9-8.8 2.5-2.5 5.5-4.4 9-5.8 3.5-1.4 7.3-2.1 11.4-2.1 4.1 0 7.9.7 11.4 2.1 3.5 1.4 6.5 3.3 9 5.8s4.5 5.4 5.9 8.8c1.4 3.4 2.2 7.2 2.2 11.4s-.7 8-2.2 11.4c-1.4 3.4-3.4 6.4-5.9 8.8-2.5 2.5-5.5 4.4-9 5.8-3.5 1.4-7.3 2.1-11.4 2.1-4.1 0-7.9-.7-11.4-2.1-3.5-1.4-6.5-3.3-9-5.8s-4.5-5.4-5.9-8.8c-1.5-3.5-2.2-7.3-2.2-11.4zm9.6 0c0 2.8.4 5.4 1.3 7.8.9 2.4 2.1 4.5 3.8 6.3 1.7 1.8 3.7 3.2 6 4.2s4.9 1.5 7.8 1.5c2.9 0 5.5-.5 7.8-1.5s4.3-2.4 6-4.2c1.7-1.8 2.9-3.9 3.8-6.3.9-2.4 1.3-5 1.3-7.8s-.4-5.4-1.3-7.8c-.9-2.4-2.1-4.5-3.8-6.3-1.7-1.8-3.7-3.2-6-4.2s-4.9-1.5-7.8-1.5c-2.9 0-5.5.5-7.8 1.5s-4.3 2.4-6 4.2c-1.7 1.8-2.9 3.9-3.8 6.3-.9 2.3-1.3 5-1.3 7.8zM537.9 71.8h-11.6v-7.5h11.6v-12c0-3.3.3-6.3.9-8.9.6-2.7 1.7-5 3.1-7 1.5-2 3.4-3.5 5.9-4.6 2.4-1.1 5.4-1.7 9-1.7 1.1 0 2.4.1 3.6.3 1.3.2 2.4.6 3.2 1l-1.3 8c-2.1-.8-4.1-1.1-6-1.1-2.3 0-4.1.4-5.4 1.2-1.3.8-2.3 1.9-2.9 3.3-.6 1.4-1 3.1-1.1 5.1-.1 2-.2 4.1-.2 6.4v10h13v7.5h-13v45.8h-8.9V71.8zM595.6 71.8h-15.7v26.7c0 1.7 0 3.4.1 4.8.1 1.5.4 2.8.9 3.9s1.3 2 2.4 2.6c1.1.6 2.6 1 4.6 1 1.3 0 2.6-.2 4-.5s2.7-.8 3.9-1.4l.3 8.1c-1.5.7-3.2 1.2-5.1 1.5-1.9.3-3.6.5-5.3.5-3.2 0-5.7-.4-7.6-1.3-1.9-.8-3.4-2-4.4-3.5-1.1-1.5-1.8-3.4-2.1-5.6-.3-2.2-.5-4.7-.5-7.5V71.8h-11.6v-7.5h11.6V49.1h8.9v15.2h15.7v7.5z"/></g></g><g id="black_x5F_bg"><path class="st0" d="M-99.5-231.4h800v600h-800z"/><path class="st3" d="M67.2 80.2C51 68.4 38.8 47.9 48.6 31.7c4.4-5.4 10-9.8 16.2-13.5.7-.3 1.4-.6 2.1-1h-.4C96.9.4 141.1.9 141.1.9s-77.8-9-119.4 30.7c-8.2 6.9-14.4 16-18.1 26.1v.1C.6 66.1-.6 75.1.3 84.4c2 20.9 14.3 38.3 31.4 47.8 5.7 3.7 12.7 5.5 20 4.8 17.3-1.7 30-17.1 28.3-34.4-.9-9.3-5.8-17.3-12.8-22.4z"/><path class="st2" d="M95.5 27.3c-.3.1-31.7 13-12.2 34.3C99.7 79.3 108 86.7 103 110.1c-1.9 9.6-7.9 18.1-17.5 25.1 24.1-10.2 39.9-35.2 37.2-62.6-1.9-19.2-12.3-35.5-27.2-45.3z"/><g class="st0"><g class="st1"><linearGradient id="SVGID_1_" gradientUnits="userSpaceOnUse" x1="-26.857" y1=".983" x2="19.582" y2="55.162" gradientTransform="matrix(.985 .174 -.174 .985 76.983 17.702)"><stop offset=".027" stop-color="#fff"/><stop offset="1"/></linearGradient><path class="st4" d="M67.2 80.2C51 68.4 38.8 47.9 48.6 31.7c4.4-5.4 10-9.8 16.2-13.5.7-.3 1.4-.6 2.1-1h-.4C96.9.4 141.1.9 141.1.9s-77.8-9-119.4 30.7c-8.2 6.9-14.4 16-18.1 26.1v.1C.6 66.1-.6 75.1.3 84.4c2 20.9 14.3 38.3 31.4 47.8 5.7 3.7 12.7 5.5 20 4.8 17.3-1.7 30-17.1 28.3-34.4-.9-9.3-5.8-17.3-12.8-22.4z"/><linearGradient id="SVGID_2_" gradientUnits="userSpaceOnUse" x1="-24.261" y1="-1.239" x2="22.178" y2="52.94" gradientTransform="matrix(.985 .174 -.174 .985 76.983 17.702)"><stop offset=".027" stop-color="#fff"/><stop offset="1"/></linearGradient><path class="st5" d="M95.5 27.3c-.3.1-31.7 13-12.2 34.3C99.7 79.3 108 86.7 103 110.1c-1.9 9.6-7.9 18.1-17.5 25.1 24.1-10.2 39.9-35.2 37.2-62.6-1.9-19.2-12.3-35.5-27.2-45.3z"/></g><linearGradient id="SVGID_3_" gradientUnits="userSpaceOnUse" x1="-30.157" y1="-7.862" x2="18.068" y2="75.49" gradientTransform="matrix(.985 .174 -.174 .985 76.983 17.702)"><stop offset=".027" stop-color="#fff"/><stop offset=".791"/></linearGradient><path class="st6" d="M94.7 4.1c-.2 0-.3 0-.5.1-8.7 1.2-136.2 21-25.4 122.5.8-.8 1.6-1.6 2.3-2.5 4.9-6 7.3-13.6 6.5-21.3-.8-8.3-5.1-15.8-11.9-20.7L64.3 81C47.7 68.2 36.4 47.1 46.6 30.5l.1-.1.1-.1c3.3-4 7.4-7.8 12.3-11.2h-.6l6.9-3.9c9.1-5.1 19.4-8.6 29.3-11.1z"/><linearGradient id="SVGID_4_" gradientUnits="userSpaceOnUse" x1="62.141" y1="38.133" x2="31.974" y2="34.164" gradientTransform="matrix(.985 .174 -.174 .985 76.983 17.702)"><stop offset=".027" stop-color="#fff"/><stop offset=".791"/></linearGradient><path class="st7" d="M95.2 30c-3.4 1.6-13.7 7.1-15.7 15.3-1.1 4.6.8 9.5 5.5 14.6l2.5 2.7c6.6 7.1 11.8 12.8 15.2 19 6.1-4.1 11.6-9.3 16.7-15.1-3.1-14.8-11.6-27.8-24.2-36.5z"/></g><path class="st2" d="M193.7 56.6c-1.4-1.8-3.4-3.2-5.9-4-2.5-.9-4.8-1.3-7-1.3-1.3 0-2.6.2-4 .5s-2.7.8-3.9 1.4c-1.2.6-2.2 1.5-3 2.6-.8 1.1-1.1 2.4-1.1 3.9 0 2.4.9 4.3 2.7 5.6 1.8 1.3 4.1 2.4 6.9 3.3 2.8.9 5.8 1.8 8.9 2.7s6.2 2.2 8.9 3.9c2.8 1.7 5.1 3.9 6.9 6.7 1.8 2.8 2.7 6.6 2.7 11.3 0 4.5-.8 8.4-2.5 11.7-1.7 3.3-3.9 6.1-6.8 8.3-2.9 2.2-6.2 3.8-9.9 4.9-3.8 1.1-7.7 1.6-11.9 1.6-5.2 0-10.1-.8-14.6-2.4-4.5-1.6-8.7-4.2-12.5-7.8l12.7-13.9c1.8 2.4 4.1 4.3 6.9 5.6 2.8 1.3 5.6 2 8.6 2 1.4 0 2.9-.2 4.4-.5s2.8-.9 4-1.5c1.2-.7 2.1-1.6 2.9-2.6.7-1.1 1.1-2.3 1.1-3.8 0-2.4-.9-4.3-2.8-5.8-1.9-1.4-4.2-2.6-7-3.6s-5.9-2-9.1-3c-3.3-1-6.3-2.3-9.1-4-2.8-1.7-5.1-3.9-7-6.6-1.9-2.7-2.8-6.3-2.8-10.8 0-4.3.9-8.1 2.6-11.4 1.7-3.3 4-6 6.8-8.2 2.9-2.2 6.1-3.9 9.9-5 3.7-1.1 7.6-1.7 11.5-1.7 4.6 0 9 .6 13.2 1.9 4.3 1.3 8.1 3.5 11.5 6.5l-12.2 13.5zM249 110.7h-.2c-1.9 3-4.4 5.1-7.6 6.4-3.2 1.3-6.5 1.9-10 1.9-2.6 0-5.1-.4-7.5-1.1s-4.5-1.8-6.3-3.2c-1.8-1.4-3.3-3.2-4.3-5.4-1.1-2.1-1.6-4.6-1.6-7.4 0-3.2.6-5.9 1.8-8.1 1.2-2.2 2.8-4 4.8-5.5 2-1.4 4.3-2.6 6.9-3.4 2.6-.8 5.3-1.4 8-1.8 2.8-.4 5.5-.6 8.3-.7 2.8-.1 5.3-.1 7.7-.1 0-3-1.1-5.5-3.2-7.2-2.2-1.8-4.7-2.7-7.7-2.7-2.8 0-5.4.6-7.7 1.8-2.3 1.2-4.4 2.8-6.2 4.8l-9.1-9.3c3.2-3 6.9-5.2 11.2-6.7 4.3-1.5 8.7-2.2 13.2-2.2 5 0 9.1.6 12.4 1.9 3.2 1.3 5.8 3.1 7.8 5.5 1.9 2.4 3.3 5.4 4 8.9.8 3.5 1.1 7.6 1.1 12.3v28.2H249v-6.9zm-4.2-17.3c-1.3 0-2.9.1-4.8.2s-3.8.4-5.6 1c-1.8.5-3.3 1.3-4.6 2.4-1.3 1.1-1.9 2.5-1.9 4.4 0 2.1.9 3.6 2.6 4.6 1.7 1 3.6 1.5 5.5 1.5 1.7 0 3.3-.2 4.8-.7 1.6-.5 2.9-1.1 4.2-1.9 1.2-.8 2.2-1.9 2.9-3.2.7-1.3 1.1-2.8 1.1-4.6v-3.6h-4.2zM272.8 31.5h17.1v86.2h-17.1V31.5zM351.8 108.1c-2.7 3.5-6.2 6.2-10.4 8.1-4.2 1.9-8.5 2.8-13 2.8-4.3 0-8.3-.7-12-2.1s-7-3.3-9.8-5.9c-2.8-2.5-5-5.6-6.6-9.2-1.6-3.6-2.4-7.6-2.4-12s.8-8.4 2.4-12c1.6-3.6 3.8-6.6 6.6-9.2 2.8-2.5 6-4.5 9.8-5.9 3.8-1.4 7.8-2.1 12-2.1 4 0 7.5.7 10.8 2.1 3.2 1.4 6 3.3 8.2 5.9 2.2 2.5 4 5.6 5.2 9.2 1.2 3.6 1.8 7.6 1.8 12v5.4h-39.7c.7 3.3 2.2 5.9 4.4 7.8 2.3 1.9 5.1 2.9 8.4 2.9 2.8 0 5.2-.6 7.1-1.9 1.9-1.3 3.6-2.9 5.1-4.8l12.1 8.9zm-14.4-24.4c.1-2.9-.9-5.4-2.8-7.4-2-2.1-4.5-3.1-7.6-3.1-1.9 0-3.6.3-5 .9-1.4.6-2.7 1.4-3.7 2.3-1 1-1.8 2.1-2.4 3.3-.6 1.3-.9 2.6-1 3.9h22.5zM393.3 78.5c-2.5-3.1-5.8-4.7-9.9-4.7-1.4 0-2.8.3-4.2 1-1.4.7-2.1 1.9-2.1 3.5 0 1.4.7 2.4 2.1 3 1.4.6 3.2 1.2 5.4 1.7s4.5 1 7 1.6c2.5.6 4.8 1.5 7 2.7 2.2 1.2 4 2.9 5.4 5 1.4 2.1 2.1 4.9 2.1 8.4 0 3.6-.8 6.5-2.3 8.8-1.6 2.3-3.6 4.2-6 5.6-2.4 1.4-5.2 2.4-8.2 3-3 .6-6 .9-9 .9-3.9 0-7.8-.6-11.7-1.7-4-1.1-7.3-3.1-10-5.9L369 100c1.6 2 3.4 3.5 5.3 4.5s4.2 1.5 6.8 1.5c2 0 3.8-.3 5.4-.9 1.6-.6 2.4-1.6 2.4-3.1 0-1.4-.7-2.5-2.1-3.2-1.4-.7-3.2-1.3-5.4-1.8s-4.5-1-7-1.6c-2.5-.6-4.8-1.4-7-2.6-2.2-1.1-4-2.8-5.4-4.8-1.4-2.1-2.1-4.9-2.1-8.4 0-3.3.7-6.1 2-8.4 1.3-2.4 3.1-4.3 5.2-5.8 2.2-1.5 4.7-2.6 7.5-3.4 2.8-.7 5.7-1.1 8.6-1.1 3.6 0 7.3.5 11.1 1.6 3.7 1.1 6.9 3 9.5 5.7l-10.5 10.3z"/><path class="st3" d="M415.9 36.9h9.6v71.8h36.9v8.9h-46.5V36.9zM465.4 91c0-4.2.7-8 2.2-11.4 1.4-3.4 3.4-6.4 5.9-8.8 2.5-2.5 5.5-4.4 9-5.8 3.5-1.4 7.3-2.1 11.4-2.1 4.1 0 7.9.7 11.4 2.1 3.5 1.4 6.5 3.3 9 5.8s4.5 5.4 5.9 8.8c1.4 3.4 2.2 7.2 2.2 11.4s-.7 8-2.2 11.4c-1.4 3.4-3.4 6.4-5.9 8.8-2.5 2.5-5.5 4.4-9 5.8-3.5 1.4-7.3 2.1-11.4 2.1-4.1 0-7.9-.7-11.4-2.1-3.5-1.4-6.5-3.3-9-5.8s-4.5-5.4-5.9-8.8c-1.5-3.5-2.2-7.3-2.2-11.4zm9.6 0c0 2.8.4 5.4 1.3 7.8.9 2.4 2.1 4.5 3.8 6.3 1.7 1.8 3.7 3.2 6 4.2s4.9 1.5 7.8 1.5c2.9 0 5.5-.5 7.8-1.5s4.3-2.4 6-4.2c1.7-1.8 2.9-3.9 3.8-6.3.9-2.4 1.3-5 1.3-7.8s-.4-5.4-1.3-7.8c-.9-2.4-2.1-4.5-3.8-6.3-1.7-1.8-3.7-3.2-6-4.2s-4.9-1.5-7.8-1.5c-2.9 0-5.5.5-7.8 1.5s-4.3 2.4-6 4.2c-1.7 1.8-2.9 3.9-3.8 6.3-.9 2.3-1.3 5-1.3 7.8zM537.9 71.8h-11.6v-7.5h11.6v-12c0-3.3.3-6.3.9-8.9.6-2.7 1.7-5 3.1-7 1.5-2 3.4-3.5 5.9-4.6 2.4-1.1 5.4-1.7 9-1.7 1.1 0 2.4.1 3.6.3 1.3.2 2.4.6 3.2 1l-1.3 8c-2.1-.8-4.1-1.1-6-1.1-2.3 0-4.1.4-5.4 1.2-1.3.8-2.3 1.9-2.9 3.3-.6 1.4-1 3.1-1.1 5.1-.1 2-.2 4.1-.2 6.4v10h13v7.5h-13v45.8h-8.9V71.8zM595.6 71.8h-15.7v26.7c0 1.7 0 3.4.1 4.8.1 1.5.4 2.8.9 3.9s1.3 2 2.4 2.6c1.1.6 2.6 1 4.6 1 1.3 0 2.6-.2 4-.5s2.7-.8 3.9-1.4l.3 8.1c-1.5.7-3.2 1.2-5.1 1.5-1.9.3-3.6.5-5.3.5-3.2 0-5.7-.4-7.6-1.3-1.9-.8-3.4-2-4.4-3.5-1.1-1.5-1.8-3.4-2.1-5.6-.3-2.2-.5-4.7-.5-7.5V71.8h-11.6v-7.5h11.6V49.1h8.9v15.2h15.7v7.5z"/></g><g class="st1" id="white_x5F_bg"><path class="st8" d="M67.2 80.2C51 68.4 38.8 47.9 48.6 31.7c4.4-5.4 10-9.8 16.2-13.5.7-.3 1.4-.6 2.1-1h-.4C96.9.4 141.1.9 141.1.9s-77.8-9-119.4 30.7c-8.2 6.9-14.4 16-18.1 26.1v.1C.6 66.1-.6 75.1.3 84.4c2 20.9 14.3 38.3 31.4 47.8 5.7 3.7 12.7 5.5 20 4.8 17.3-1.7 30-17.1 28.3-34.4-.9-9.3-5.8-17.3-12.8-22.4z"/><path class="st9" d="M95.5 27.3c-.3.1-31.7 13-12.2 34.3C99.7 79.3 108 86.7 103 110.1c-1.9 9.6-7.9 18.1-17.5 25.1 24.1-10.2 39.9-35.2 37.2-62.6-1.9-19.2-12.3-35.5-27.2-45.3z"/><g class="st0"><g class="st1"><linearGradient id="SVGID_5_" gradientUnits="userSpaceOnUse" x1="-26.857" y1=".983" x2="19.582" y2="55.162" gradientTransform="matrix(.985 .174 -.174 .985 76.983 17.702)"><stop offset=".027" stop-color="#fff"/><stop offset="1"/></linearGradient><path class="st10" d="M67.2 80.2C51 68.4 38.8 47.9 48.6 31.7c4.4-5.4 10-9.8 16.2-13.5.7-.3 1.4-.6 2.1-1h-.4C96.9.4 141.1.9 141.1.9s-77.8-9-119.4 30.7c-8.2 6.9-14.4 16-18.1 26.1v.1C.6 66.1-.6 75.1.3 84.4c2 20.9 14.3 38.3 31.4 47.8 5.7 3.7 12.7 5.5 20 4.8 17.3-1.7 30-17.1 28.3-34.4-.9-9.3-5.8-17.3-12.8-22.4z"/><linearGradient id="SVGID_6_" gradientUnits="userSpaceOnUse" x1="-24.261" y1="-1.239" x2="22.178" y2="52.94" gradientTransform="matrix(.985 .174 -.174 .985 76.983 17.702)"><stop offset=".027" stop-color="#fff"/><stop offset="1"/></linearGradient><path class="st11" d="M95.5 27.3c-.3.1-31.7 13-12.2 34.3C99.7 79.3 108 86.7 103 110.1c-1.9 9.6-7.9 18.1-17.5 25.1 24.1-10.2 39.9-35.2 37.2-62.6-1.9-19.2-12.3-35.5-27.2-45.3z"/></g><linearGradient id="SVGID_7_" gradientUnits="userSpaceOnUse" x1="-30.157" y1="-7.862" x2="18.068" y2="75.49" gradientTransform="matrix(.985 .174 -.174 .985 76.983 17.702)"><stop offset=".027" stop-color="#fff"/><stop offset=".791"/></linearGradient><path class="st12" d="M94.7 4.1c-.2 0-.3 0-.5.1-8.7 1.2-136.2 21-25.4 122.5.8-.8 1.6-1.6 2.3-2.5 4.9-6 7.3-13.6 6.5-21.3-.8-8.3-5.1-15.8-11.9-20.7L64.3 81C47.7 68.2 36.4 47.1 46.6 30.5l.1-.1.1-.1c3.3-4 7.4-7.8 12.3-11.2h-.6l6.9-3.9c9.1-5.1 19.4-8.6 29.3-11.1z"/><linearGradient id="SVGID_8_" gradientUnits="userSpaceOnUse" x1="62.141" y1="38.133" x2="31.974" y2="34.164" gradientTransform="matrix(.985 .174 -.174 .985 76.983 17.702)"><stop offset=".027" stop-color="#fff"/><stop offset=".791"/></linearGradient><path class="st13" d="M95.2 30c-3.4 1.6-13.7 7.1-15.7 15.3-1.1 4.6.8 9.5 5.5 14.6l2.5 2.7c6.6 7.1 11.8 12.8 15.2 19 6.1-4.1 11.6-9.3 16.7-15.1-3.1-14.8-11.6-27.8-24.2-36.5z"/></g><path class="st9" d="M193.7 56.6c-1.4-1.8-3.4-3.2-5.9-4-2.5-.9-4.8-1.3-7-1.3-1.3 0-2.6.2-4 .5s-2.7.8-3.9 1.4c-1.2.6-2.2 1.5-3 2.6-.8 1.1-1.1 2.4-1.1 3.9 0 2.4.9 4.3 2.7 5.6 1.8 1.3 4.1 2.4 6.9 3.3 2.8.9 5.8 1.8 8.9 2.7s6.2 2.2 8.9 3.9c2.8 1.7 5.1 3.9 6.9 6.7 1.8 2.8 2.7 6.6 2.7 11.3 0 4.5-.8 8.4-2.5 11.7-1.7 3.3-3.9 6.1-6.8 8.3-2.9 2.2-6.2 3.8-9.9 4.9-3.8 1.1-7.7 1.6-11.9 1.6-5.2 0-10.1-.8-14.6-2.4-4.5-1.6-8.7-4.2-12.5-7.8l12.7-13.9c1.8 2.4 4.1 4.3 6.9 5.6 2.8 1.3 5.6 2 8.6 2 1.4 0 2.9-.2 4.4-.5s2.8-.9 4-1.5c1.2-.7 2.1-1.6 2.9-2.6.7-1.1 1.1-2.3 1.1-3.8 0-2.4-.9-4.3-2.8-5.8-1.9-1.4-4.2-2.6-7-3.6s-5.9-2-9.1-3c-3.3-1-6.3-2.3-9.1-4-2.8-1.7-5.1-3.9-7-6.6-1.9-2.7-2.8-6.3-2.8-10.8 0-4.3.9-8.1 2.6-11.4 1.7-3.3 4-6 6.8-8.2 2.9-2.2 6.1-3.9 9.9-5 3.7-1.1 7.6-1.7 11.5-1.7 4.6 0 9 .6 13.2 1.9 4.3 1.3 8.1 3.5 11.5 6.5l-12.2 13.5zM249 110.7h-.2c-1.9 3-4.4 5.1-7.6 6.4-3.2 1.3-6.5 1.9-10 1.9-2.6 0-5.1-.4-7.5-1.1s-4.5-1.8-6.3-3.2c-1.8-1.4-3.3-3.2-4.3-5.4-1.1-2.1-1.6-4.6-1.6-7.4 0-3.2.6-5.9 1.8-8.1 1.2-2.2 2.8-4 4.8-5.5 2-1.4 4.3-2.6 6.9-3.4 2.6-.8 5.3-1.4 8-1.8 2.8-.4 5.5-.6 8.3-.7 2.8-.1 5.3-.1 7.7-.1 0-3-1.1-5.5-3.2-7.2-2.2-1.8-4.7-2.7-7.7-2.7-2.8 0-5.4.6-7.7 1.8-2.3 1.2-4.4 2.8-6.2 4.8l-9.1-9.3c3.2-3 6.9-5.2 11.2-6.7 4.3-1.5 8.7-2.2 13.2-2.2 5 0 9.1.6 12.4 1.9 3.2 1.3 5.8 3.1 7.8 5.5 1.9 2.4 3.3 5.4 4 8.9.8 3.5 1.1 7.6 1.1 12.3v28.2H249v-6.9zm-4.2-17.3c-1.3 0-2.9.1-4.8.2s-3.8.4-5.6 1c-1.8.5-3.3 1.3-4.6 2.4-1.3 1.1-1.9 2.5-1.9 4.4 0 2.1.9 3.6 2.6 4.6 1.7 1 3.6 1.5 5.5 1.5 1.7 0 3.3-.2 4.8-.7 1.6-.5 2.9-1.1 4.2-1.9 1.2-.8 2.2-1.9 2.9-3.2.7-1.3 1.1-2.8 1.1-4.6v-3.6h-4.2zM272.8 31.5h17.1v86.2h-17.1V31.5zM351.8 108.1c-2.7 3.5-6.2 6.2-10.4 8.1-4.2 1.9-8.5 2.8-13 2.8-4.3 0-8.3-.7-12-2.1s-7-3.3-9.8-5.9c-2.8-2.5-5-5.6-6.6-9.2-1.6-3.6-2.4-7.6-2.4-12s.8-8.4 2.4-12c1.6-3.6 3.8-6.6 6.6-9.2 2.8-2.5 6-4.5 9.8-5.9 3.8-1.4 7.8-2.1 12-2.1 4 0 7.5.7 10.8 2.1 3.2 1.4 6 3.3 8.2 5.9 2.2 2.5 4 5.6 5.2 9.2 1.2 3.6 1.8 7.6 1.8 12v5.4h-39.7c.7 3.3 2.2 5.9 4.4 7.8 2.3 1.9 5.1 2.9 8.4 2.9 2.8 0 5.2-.6 7.1-1.9 1.9-1.3 3.6-2.9 5.1-4.8l12.1 8.9zm-14.4-24.4c.1-2.9-.9-5.4-2.8-7.4-2-2.1-4.5-3.1-7.6-3.1-1.9 0-3.6.3-5 .9-1.4.6-2.7 1.4-3.7 2.3-1 1-1.8 2.1-2.4 3.3-.6 1.3-.9 2.6-1 3.9h22.5zM393.3 78.5c-2.5-3.1-5.8-4.7-9.9-4.7-1.4 0-2.8.3-4.2 1-1.4.7-2.1 1.9-2.1 3.5 0 1.4.7 2.4 2.1 3 1.4.6 3.2 1.2 5.4 1.7s4.5 1 7 1.6c2.5.6 4.8 1.5 7 2.7 2.2 1.2 4 2.9 5.4 5 1.4 2.1 2.1 4.9 2.1 8.4 0 3.6-.8 6.5-2.3 8.8-1.6 2.3-3.6 4.2-6 5.6-2.4 1.4-5.2 2.4-8.2 3-3 .6-6 .9-9 .9-3.9 0-7.8-.6-11.7-1.7-4-1.1-7.3-3.1-10-5.9L369 100c1.6 2 3.4 3.5 5.3 4.5s4.2 1.5 6.8 1.5c2 0 3.8-.3 5.4-.9 1.6-.6 2.4-1.6 2.4-3.1 0-1.4-.7-2.5-2.1-3.2-1.4-.7-3.2-1.3-5.4-1.8s-4.5-1-7-1.6c-2.5-.6-4.8-1.4-7-2.6-2.2-1.1-4-2.8-5.4-4.8-1.4-2.1-2.1-4.9-2.1-8.4 0-3.3.7-6.1 2-8.4 1.3-2.4 3.1-4.3 5.2-5.8 2.2-1.5 4.7-2.6 7.5-3.4 2.8-.7 5.7-1.1 8.6-1.1 3.6 0 7.3.5 11.1 1.6 3.7 1.1 6.9 3 9.5 5.7l-10.5 10.3z"/><path class="st8" d="M415.9 36.9h9.6v71.8h36.9v8.9h-46.5V36.9zM465.4 91c0-4.2.7-8 2.2-11.4 1.4-3.4 3.4-6.4 5.9-8.8 2.5-2.5 5.5-4.4 9-5.8 3.5-1.4 7.3-2.1 11.4-2.1 4.1 0 7.9.7 11.4 2.1 3.5 1.4 6.5 3.3 9 5.8s4.5 5.4 5.9 8.8c1.4 3.4 2.2 7.2 2.2 11.4s-.7 8-2.2 11.4c-1.4 3.4-3.4 6.4-5.9 8.8-2.5 2.5-5.5 4.4-9 5.8-3.5 1.4-7.3 2.1-11.4 2.1-4.1 0-7.9-.7-11.4-2.1-3.5-1.4-6.5-3.3-9-5.8s-4.5-5.4-5.9-8.8c-1.5-3.5-2.2-7.3-2.2-11.4zm9.6 0c0 2.8.4 5.4 1.3 7.8.9 2.4 2.1 4.5 3.8 6.3 1.7 1.8 3.7 3.2 6 4.2s4.9 1.5 7.8 1.5c2.9 0 5.5-.5 7.8-1.5s4.3-2.4 6-4.2c1.7-1.8 2.9-3.9 3.8-6.3.9-2.4 1.3-5 1.3-7.8s-.4-5.4-1.3-7.8c-.9-2.4-2.1-4.5-3.8-6.3-1.7-1.8-3.7-3.2-6-4.2s-4.9-1.5-7.8-1.5c-2.9 0-5.5.5-7.8 1.5s-4.3 2.4-6 4.2c-1.7 1.8-2.9 3.9-3.8 6.3-.9 2.3-1.3 5-1.3 7.8zM537.9 71.8h-11.6v-7.5h11.6v-12c0-3.3.3-6.3.9-8.9.6-2.7 1.7-5 3.1-7 1.5-2 3.4-3.5 5.9-4.6 2.4-1.1 5.4-1.7 9-1.7 1.1 0 2.4.1 3.6.3 1.3.2 2.4.6 3.2 1l-1.3 8c-2.1-.8-4.1-1.1-6-1.1-2.3 0-4.1.4-5.4 1.2-1.3.8-2.3 1.9-2.9 3.3-.6 1.4-1 3.1-1.1 5.1-.1 2-.2 4.1-.2 6.4v10h13v7.5h-13v45.8h-8.9V71.8zM595.6 71.8h-15.7v26.7c0 1.7 0 3.4.1 4.8.1 1.5.4 2.8.9 3.9s1.3 2 2.4 2.6c1.1.6 2.6 1 4.6 1 1.3 0 2.6-.2 4-.5s2.7-.8 3.9-1.4l.3 8.1c-1.5.7-3.2 1.2-5.1 1.5-1.9.3-3.6.5-5.3.5-3.2 0-5.7-.4-7.6-1.3-1.9-.8-3.4-2-4.4-3.5-1.1-1.5-1.8-3.4-2.1-5.6-.3-2.2-.5-4.7-.5-7.5V71.8h-11.6v-7.5h11.6V49.1h8.9v15.2h15.7v7.5z"/></g></svg>